{
  "accessors": [
    {
      "bufferView": 2,
      "componentType": 5126,
      "count": 1527,
      "max": [
        0.8374271392822266,
        0.8029106259346008,
        0.5927322506904602
      ],
      "min": [
        -0.8374271392822266,
        -0.9354171752929688,
        0.019882064312696457
      ],
      "type": "VEC3"
    },
    {
      "bufferView": 2,
      "byteOffset": 18324,
      "componentType": 5126,
      "count": 1527,
      "max": [
        0.9810826778411865,
        0.9813806414604187,
        0.9999759197235107
      ],
      "min": [
        -0.9810826778411865,
        -0.9888876676559448,
        -0.9988970756530762
      ],
      "type": "VEC3"
    },
    {
      "bufferView": 3,
      "componentType": 5126,
      "count": 1527,
      "max": [
        0.9867823719978333,
        0.7630040645599365,
        0.9953029155731201,
        1.0
      ],
      "min": [
        -0.9223185181617737,
        -0.9986440539360046,
        -0.9448983073234558,
        -1.0
      ],
      "type": "VEC4"
    },
    {
      "bufferView": 1,
      "componentType": 5126,
      "count": 1527,
      "max": [
        0.9982781410217285,
        0.9971546530723572
      ],
      "min": [
        0.0017558849649503827,
        0.0017072393093258142
      ],
      "type": "VEC2"
    },
    {
      "bufferView": 0,
      "componentType": 5125,
      "count": 8682,
      "type": "SCALAR"
    }
  ],
  "asset": {
    "extras": {
      "author": "ReversedG (https://sketchfab.com/ReversedG)",
      "license": "CC-BY-4.0 (http://creativecommons.org/licenses/by/4.0/)",
      "source": "https://sketchfab.com/3d-models/pirate-hat-84b496f5860340eca3cc1d63985aa524",
      "title": "Pirate hat"
    },
    "generator": "Sketchfab-14.85.0",
    "version": "2.0"
  },
  "bufferViews": [
    {
      "buffer": 0,
      "byteLength": 34728,
      "name": "floatBufferViews",
      "target": 34963
    },
    {
      "buffer": 0,
      "byteLength": 12216,
      "byteOffset": 34728,
      "byteStride": 8,
      "name": "floatBufferViews",
      "target": 34962
    },
    {
      "buffer": 0,
      "byteLength": 36648,
      "byteOffset": 46944,
      "byteStride": 12,
      "name": "floatBufferViews",
      "target": 34962
    },
    {
      "buffer": 0,
      "byteLength": 24432,
      "byteOffset": 83592,
      "byteStride": 16,
      "name": "floatBufferViews",
      "target": 34962
    }
  ],
  "buffers": [
    {
      "byteLength": 108024,
      "uri": "scene.bin"
    }
  ],
  "images": [
    {
      "uri": "textures/material_baseColor.png"
    },
    {
      "uri": "textures/material_metallicRoughness.png"
    },
    {
      "uri": "textures/material_normal.png"
    }
  ],
  "materials": [
    {
      "doubleSided": true,
      "name": "material",
      "normalTexture": {
        "index": 2
      },
      "pbrMetallicRoughness": {
        "baseColorTexture": {
          "index": 0
        },
        "metallicRoughnessTexture": {
          "index": 1
        }
      }
    }
  ],
  "meshes": [
    {
      "name": "low poly_hat_0",
      "primitives": [
        {
          "attributes": {
            "NORMAL": 1,
            "POSITION": 0,
            "TANGENT": 2,
            "TEXCOORD_0": 3
          },
          "indices": 4,
          "material": 0,
          "mode": 4
        }
      ]
    }
  ],
  "nodes": [
    {
      "children": [
        1
      ],
      "matrix": [
        1.0,
        0.0,
        0.0,
        0.0,
        0.0,
        2.220446049250313e-16,
        -1.0,
        0.0,
        0.0,
        1.0,
        2.220446049250313e-16,
        0.0,
        0.0,
        0.0,
        0.0,
        1.0
      ],
      "name": "Sketchfab_model"
    },
    {
      "children": [
        2
      ],
      "matrix": [
        1.0,
        0.0,
        0.0,
        0.0,
        0.0,
        0.0,
        1.0,
        0.0,
        0.0,
        -1.0,
        0.0,
        0.0,
        0.0,
        0.0,
        0.0,
        1.0
      ],
      "name": "183b305589704770a0211913edaf7577.fbx"
    },
    {
      "children": [
        3
      ],
      "name": "RootNode"
    },
    {
      "children": [
        4
      ],
      "matrix": [
        0.19908450543880463,
        0.0,
        0.0,
        0.0,
        0.0,
        -3.233984103317705e-08,
        -0.19850052893161513,
        0.0,
        0.0,
        0.20578718185424533,
        -3.352698747782445e-08,
        0.0,
        0.0,
        1.7241779565811157,
        0.0,
        1.0
      ],
      "name": "low poly"
    },
    {
      "mesh": 0,
      "name": "low poly_hat_0"
    }
  ],
  "samplers": [
    {
      "magFilter": 9729,
      "minFilter": 9987,
      "wrapS": 10497,
      "wrapT": 10497
    }
  ],
  "scene": 0,
  "scenes": [
    {
      "name": "Sketchfab_Scene",
      "nodes": [
        0
      ]
    }
  ],
  "textures": [
    {
      "sampler": 0,
      "source": 0
    },
    {
      "sampler": 0,
      "source": 1
    },
    {
      "sampler": 0,
      "source": 2
    }
  ]
}
